<svg width="12" height="20" viewBox="0 0 12 20" fill="none" xmlns="http://www.w3.org/2000/svg">
<path d="M11.1303 0.00428336L8.53681 0.00012207C5.62307 0.00012207 3.74009 1.932 3.74009 4.9221V7.19146H1.13242C0.907082 7.19146 0.724609 7.37414 0.724609 7.59947V10.8875C0.724609 11.1129 0.90729 11.2953 1.13242 11.2953H3.74009V19.5921C3.74009 19.8174 3.92256 19.9999 4.1479 19.9999H7.55017C7.7755 19.9999 7.95797 19.8172 7.95797 19.5921V11.2953H11.007C11.2323 11.2953 11.4148 11.1129 11.4148 10.8875L11.416 7.59947C11.416 7.49128 11.3729 7.38766 11.2966 7.3111C11.2202 7.23453 11.1162 7.19146 11.008 7.19146H7.95797V5.26769C7.95797 4.34305 8.17831 3.87366 9.3828 3.87366L11.1299 3.87304C11.355 3.87304 11.5375 3.69036 11.5375 3.46523V0.41209C11.5375 0.187172 11.3553 0.00469949 11.1303 0.00428336Z" fill="white"/>
</svg>
