<svg width="21" height="20" viewBox="0 0 21 20" fill="none" xmlns="http://www.w3.org/2000/svg">
<g clip-path="url(#clip0_2887_2927)">
<path d="M15.0411 0H6.07967C3.03643 0 0.560547 2.476 0.560547 5.51924V14.4806C0.560547 17.524 3.03643 19.9999 6.07967 19.9999H15.0411C18.0845 19.9999 20.5604 17.5239 20.5604 14.4806V5.51924C20.5605 2.476 18.0845 0 15.0411 0ZM18.7861 14.4806C18.7861 16.5455 17.1061 18.2254 15.0412 18.2254H6.07967C4.01488 18.2255 2.33503 16.5455 2.33503 14.4806V5.51924C2.33503 3.45445 4.01488 1.77449 6.07967 1.77449H15.0411C17.106 1.77449 18.7859 3.45445 18.7859 5.51924V14.4806H18.7861Z" fill="white"/>
<path d="M10.5597 4.84674C7.71805 4.84674 5.40625 7.15854 5.40625 10.0002C5.40625 12.8417 7.71805 15.1534 10.5597 15.1534C13.4014 15.1534 15.7132 12.8417 15.7132 10.0002C15.7132 7.15854 13.4014 4.84674 10.5597 4.84674ZM10.5597 13.3788C8.69662 13.3788 7.18074 11.8632 7.18074 10.0001C7.18074 8.13687 8.6965 6.62111 10.5597 6.62111C12.4229 6.62111 13.9387 8.13687 13.9387 10.0001C13.9387 11.8632 12.4228 13.3788 10.5597 13.3788Z" fill="white"/>
<path d="M15.9302 3.34204C15.5883 3.34204 15.2525 3.48045 15.011 3.72296C14.7684 3.96429 14.6289 4.30026 14.6289 4.64333C14.6289 4.98533 14.7685 5.32118 15.011 5.5637C15.2523 5.80503 15.5883 5.94462 15.9302 5.94462C16.2733 5.94462 16.6081 5.80503 16.8506 5.5637C17.0931 5.32118 17.2315 4.98522 17.2315 4.64333C17.2315 4.30026 17.0931 3.96429 16.8506 3.72296C16.6092 3.48045 16.2733 3.34204 15.9302 3.34204Z" fill="white"/>
</g>
<defs>
<clipPath id="clip0_2887_2927">
<rect width="20" height="20" fill="white" transform="translate(0.560547)"/>
</clipPath>
</defs>
</svg>
