<svg width="21" height="20" viewBox="0 0 21 20" fill="none" xmlns="http://www.w3.org/2000/svg">
<g clip-path="url(#clip0_2887_2938)">
<path d="M19.0853 0H2.39779C1.48633 0 0.689453 0.65625 0.689453 1.55729V18.2812C0.689453 19.1875 1.48633 19.9948 2.39779 19.9948H19.0801C19.9967 19.9948 20.6843 19.1823 20.6843 18.2812V1.55729C20.6895 0.65625 19.9967 0 19.0853 0ZM6.88737 16.6667H4.02279V7.76042H6.88737V16.6667ZM5.55404 6.40625H5.5332C4.61654 6.40625 4.02279 5.72396 4.02279 4.86979C4.02279 4 4.63216 3.33333 5.56966 3.33333C6.50716 3.33333 7.08008 3.99479 7.10091 4.86979C7.10091 5.72396 6.50716 6.40625 5.55404 6.40625ZM17.3561 16.6667H14.4915V11.7969C14.4915 10.6302 14.0749 9.83333 13.0384 9.83333C12.2467 9.83333 11.778 10.3698 11.5697 10.8906C11.4915 11.0781 11.4707 11.3333 11.4707 11.5937V16.6667H8.60612V7.76042H11.4707V9C11.8874 8.40625 12.5384 7.55208 14.054 7.55208C15.9342 7.55208 17.3561 8.79167 17.3561 11.4635V16.6667Z" fill="white"/>
</g>
<defs>
<clipPath id="clip0_2887_2938">
<rect width="20" height="20" fill="white" transform="translate(0.689453)"/>
</clipPath>
</defs>
</svg>
