<svg width="20" height="20" viewBox="0 0 20 20" fill="none" xmlns="http://www.w3.org/2000/svg">
<g clip-path="url(#clip0_2887_2921)">
<path d="M20 3.79926C19.2639 4.12544 18.474 4.34665 17.6441 4.4454C18.4915 3.93799 19.1401 3.13315 19.4475 2.17707C18.6527 2.64697 17.7754 2.98818 16.8405 3.17315C16.0919 2.37455 15.0271 1.87714 13.8461 1.87714C11.5803 1.87714 9.7431 3.71429 9.7431 5.97887C9.7431 6.30004 9.77935 6.61374 9.84935 6.9137C6.44 6.74246 3.41683 5.10903 1.39346 2.62697C1.03977 3.23187 0.838562 3.93671 0.838562 4.6891C0.838562 6.11259 1.56343 7.36861 2.66324 8.10344C1.99085 8.08096 1.35846 7.89599 0.804837 7.58854V7.63978C0.804837 9.62691 2.21957 11.2853 4.09546 11.6628C3.75176 11.7553 3.38935 11.8065 3.01441 11.8065C2.74948 11.8065 2.49327 11.7803 2.24206 11.7303C2.76444 13.3612 4.27918 14.5472 6.07386 14.5798C4.67036 15.6796 2.90069 16.3332 0.978562 16.3332C0.647386 16.3332 0.321176 16.3132 0 16.2769C1.81591 17.443 3.97176 18.1229 6.28882 18.1229C13.8361 18.1229 17.9616 11.8715 17.9616 6.45005L17.9479 5.9189C18.754 5.34397 19.4513 4.62161 20 3.79926Z" fill="white"/>
</g>
<defs>
<clipPath id="clip0_2887_2921">
<rect width="20" height="20" fill="white"/>
</clipPath>
</defs>
</svg>
