<svg width="20" height="20" viewBox="0 0 20 20" fill="none" xmlns="http://www.w3.org/2000/svg">
<g clip-path="url(#clip0_2887_2944)">
<path d="M10.0166 0.31427C10.0202 0.314275 10.0245 0.314282 10.0293 0.314291L10.0881 0.314452C10.8522 0.317076 16.3605 0.354569 17.8115 0.890171C18.6701 1.20431 19.3508 2.14672 19.5811 3.32996C19.979 5.37918 19.9989 9.5358 19.9999 9.94634V10.0119C19.9989 10.4215 19.979 14.5687 19.5811 16.6179C19.3508 17.8012 18.6701 18.7436 17.8115 19.0577C16.3293 19.6048 10.6134 19.6322 10.0455 19.6336H9.95446C9.38657 19.6322 3.67065 19.6048 2.18845 19.0577C1.32982 18.7436 0.649188 17.8012 0.418821 16.6074C0.033481 14.6326 0.00265382 10.6724 0.000187644 10.0515L2.55497e-05 10.0015C1.50785e-05 9.99722 6.70157e-06 9.99331 0 9.98983V9.94763C6.70157e-06 9.94415 1.50785e-05 9.94026 2.55497e-05 9.93594L0.000187644 9.88614C0.00265382 9.26651 0.033481 5.31446 0.418821 3.32996C0.649188 2.14672 1.32982 1.20431 2.18845 0.890171C3.63945 0.354569 9.14778 0.317076 9.91183 0.314452L9.97067 0.314291C9.97549 0.314282 9.97974 0.314275 9.98339 0.31427H10.0166ZM7.27746 6.42944V13.8012L13.7487 10.1153L7.27746 6.42944Z" fill="white"/>
</g>
<defs>
<clipPath id="clip0_2887_2944">
<rect width="20" height="19.3717" fill="white" transform="translate(0 0.314148)"/>
</clipPath>
</defs>
</svg>
